<svg width="115" height="115" viewBox="0 0 115 115" fill="none" xmlns="http://www.w3.org/2000/svg">
<path fill-rule="evenodd" clip-rule="evenodd" d="M13.9796 4.29053H100.847C108.515 4.29053 114.752 10.5179 114.752 18.1707V75.3308C114.752 82.9846 108.515 89.2109 100.847 89.2109H50.5662V96.7438C50.5662 96.8206 50.5562 96.8944 50.5461 96.9684C50.5398 97.0153 50.5334 97.0623 50.5295 97.1102H50.5519C50.5519 99.0262 50.166 100.851 49.4785 102.522H65.8357C65.1482 100.851 64.7624 99.0262 64.7624 97.1102C64.7624 94.6578 66.7541 92.6696 69.2103 92.6696C71.6672 92.6696 73.6586 94.6578 73.6586 97.1102C73.6586 100.094 76.0895 102.519 79.0763 102.522H79.1965C81.653 102.522 83.6444 104.509 83.6444 106.962C83.6444 109.414 81.653 111.402 79.1965 111.402H79.0827H79.0795H79.0741H36.2411H36.2344H35.4773C33.0208 111.402 31.0291 109.414 31.0291 106.962C31.0291 104.509 33.0208 102.522 35.4773 102.522H36.2379C39.2257 102.519 41.6557 100.094 41.6557 97.1102H41.7077C41.7039 97.0611 41.6972 97.0129 41.6904 96.9648C41.6802 96.892 41.67 96.8193 41.67 96.7438V89.2109H13.9796C6.31217 89.2109 0.0748437 82.9846 0.0748437 75.3308V70.6752C0.0748437 70.6729 0.0737305 70.6697 0.0737305 70.6697L0.0748437 70.6643V18.1707C0.0748437 10.5179 6.31217 4.29053 13.9796 4.29053ZM100.847 80.3304C103.608 80.3304 105.856 78.0869 105.856 75.3308V18.1707C105.856 15.4144 103.608 13.171 100.847 13.171H13.9796C11.2173 13.171 8.97104 15.4144 8.97104 18.1707V65.1194H94.3876C96.8445 65.1194 98.8369 67.1076 98.8369 69.5594C98.8369 72.0117 96.8445 74 94.3876 74H8.97104V75.3308C8.97104 78.0869 11.2173 80.3304 13.9796 80.3304H100.847ZM48.4265 19.947L75.7268 35.6809C77.1024 36.4746 77.9508 37.9399 77.9499 39.5262C77.9499 41.1132 77.1014 42.5788 75.7259 43.3714L68.7345 47.3996C66.6073 48.6285 63.8873 47.8979 62.6584 45.7746C61.4307 43.6509 62.1591 40.935 64.2875 39.7093L64.6054 39.5262L50.6508 31.4838L50.6517 47.5682L51.0201 47.3565C53.1485 46.1266 55.8683 46.8578 57.0972 48.9805C58.3251 51.1051 57.5955 53.8204 55.4683 55.0458L48.4281 59.104C47.7397 59.5005 46.9711 59.6991 46.2041 59.6991C45.4355 59.6991 44.6669 59.5005 43.9798 59.104C42.6033 58.3115 41.7558 56.8443 41.7558 55.2592L41.7549 23.7922C41.7549 22.206 42.602 20.7396 43.9789 19.947C45.3553 19.1544 47.0513 19.1544 48.4265 19.947Z" fill="url(#paint0_linear_22_86)"/>
<defs>
<linearGradient id="paint0_linear_22_86" x1="0.0737305" y1="76.663" x2="114.752" y2="76.663" gradientUnits="userSpaceOnUse">
<stop offset="0.0625" stop-color="#502D7F"/>
<stop offset="1" stop-color="#0098AA"/>
</linearGradient>
</defs>
</svg>
